<?xml version="1.0" encoding="utf-8"?>
<!-- Generator: Adobe Illustrator 27.6.1, SVG Export Plug-In . SVG Version: 6.00 Build 0)  -->
<svg version="1.1" id="Layer_1" xmlns="http://www.w3.org/2000/svg" xmlns:xlink="http://www.w3.org/1999/xlink" x="0px" y="0px"
	 viewBox="0 0 800 800" style="enable-background:new 0 0 800 800;" xml:space="preserve">
<style type="text/css">
	.st0{fill:#1C274C;}
	.st1{opacity:0.5;fill:#1C274C;enable-background:new    ;}
</style>
<g>
	<path class="st0" d="M273.3,40c2.8-3.1,7.6-3.3,10.7-0.6l17.5,15.7c7.4,6.7,13.6,12.2,17.8,17.2c4.4,5.3,7.6,10.9,7.6,17.9
		s-3.2,12.7-7.6,17.9c-4.2,5-10.4,10.5-17.8,17.2l-17.5,15.7c-3.1,2.8-7.9,2.5-10.7-0.6c-2.8-3.1-2.5-7.9,0.6-10.7l17.1-15.4
		c7.9-7.1,13.3-12,16.7-16.1c3.3-4,4-6.3,4-8.2c0-2-0.7-4.3-4-8.2c-3.5-4.1-8.8-9-16.7-16.1l-17.1-15.4
		C270.7,47.9,270.5,43.1,273.3,40z"/>
	<path class="st0" d="M183.3,50.6c3.1-2.8,3.3-7.6,0.6-10.7c-2.8-3.1-7.6-3.3-10.7-0.6l-17.5,15.7c-7.4,6.7-13.6,12.2-17.8,17.2
		c-4.4,5.3-7.6,10.9-7.6,17.9s3.2,12.7,7.6,17.9c4.2,5,10.4,10.5,17.8,17.2l17.5,15.7c3.1,2.8,7.9,2.5,10.7-0.6
		c2.8-3.1,2.5-7.9-0.6-10.7l-17.1-15.4c-7.9-7.1-13.3-12-16.7-16.1c-3.3-4-4-6.3-4-8.2c0-2,0.7-4.3,4-8.2c3.5-4.1,8.8-9,16.7-16.1
		L183.3,50.6z"/>
	<path class="st1" d="M250.5,9.3c4,1.1,6.4,5.2,5.3,9.2l-40,149.2c-1.1,4-5.2,6.4-9.2,5.3c-4-1.1-6.4-5.2-5.3-9.2l40-149.2
		C242.4,10.6,246.5,8.2,250.5,9.3z"/>
</g>
<g>
	<path class="st0" d="M156.7,225.6c2.8-3.1,7.6-3.3,10.7-0.6l17.5,15.7c7.4,6.7,13.6,12.2,17.8,17.2c4.4,5.3,7.6,10.9,7.6,17.9
		s-3.2,12.7-7.6,17.9c-4.2,5-10.4,10.5-17.8,17.2l-17.5,15.7c-3.1,2.8-7.9,2.5-10.7-0.6c-2.8-3.1-2.5-7.9,0.6-10.7l17.1-15.4
		c7.9-7.1,13.3-12,16.7-16.1c3.3-4,4-6.3,4-8.2c0-2-0.7-4.3-4-8.2c-3.5-4.1-8.8-9-16.7-16.1l-17.1-15.4
		C154.1,233.5,153.9,228.7,156.7,225.6z"/>
	<path class="st0" d="M66.7,236.3c3.1-2.8,3.3-7.6,0.6-10.7c-2.8-3.1-7.6-3.3-10.7-0.6l-17.5,15.7c-7.4,6.7-13.6,12.2-17.8,17.2
		c-4.4,5.3-7.6,10.9-7.6,17.9s3.2,12.7,7.6,17.9c4.2,5,10.4,10.5,17.8,17.2l17.5,15.7c3.1,2.8,7.9,2.5,10.7-0.6
		c2.8-3.1,2.5-7.9-0.6-10.7l-17.1-15.4c-7.9-7.1-13.3-12-16.7-16.1c-3.3-4-4-6.3-4-8.2c0-2,0.7-4.3,4-8.2c3.5-4.1,8.8-9,16.7-16.1
		L66.7,236.3z"/>
	<path class="st1" d="M133.9,194.9c4,1.1,6.4,5.2,5.3,9.2l-40,149.2c-1.1,4-5.2,6.4-9.2,5.3c-4-1.1-6.4-5.2-5.3-9.2l40-149.2
		C125.8,196.2,129.9,193.8,133.9,194.9z"/>
</g>
<g>
	<path class="st0" d="M587.6,406c2.8-3.1,7.6-3.3,10.7-0.6l17.5,15.7c7.4,6.7,13.6,12.2,17.8,17.2c4.4,5.3,7.6,10.9,7.6,17.9
		s-3.2,12.7-7.6,17.9c-4.2,5-10.4,10.5-17.8,17.2l-17.5,15.7c-3.1,2.8-7.9,2.5-10.7-0.6c-2.8-3.1-2.5-7.9,0.6-10.7l17.1-15.4
		c7.9-7.1,13.3-12,16.7-16.1c3.3-4,4-6.3,4-8.2s-0.7-4.3-4-8.2c-3.5-4.1-8.8-9-16.7-16.1l-17.1-15.4
		C585.1,413.9,584.8,409.1,587.6,406z"/>
	<path class="st0" d="M497.6,416.7c3.1-2.8,3.3-7.6,0.6-10.7c-2.8-3.1-7.6-3.3-10.7-0.6L470,421.2c-7.4,6.7-13.6,12.2-17.8,17.2
		c-4.4,5.3-7.6,10.9-7.6,17.9s3.2,12.7,7.6,17.9c4.2,5,10.4,10.5,17.8,17.2l17.5,15.7c3.1,2.8,7.9,2.5,10.7-0.6
		c2.8-3.1,2.5-7.9-0.6-10.7l-17.1-15.4c-7.9-7.1-13.3-12-16.7-16.1c-3.3-4-4-6.3-4-8.2s0.7-4.3,4-8.2c3.5-4.1,8.8-9,16.7-16.1
		L497.6,416.7z"/>
	<path class="st1" d="M564.9,375.3c4,1.1,6.4,5.2,5.3,9.2l-40,149.2c-1.1,4-5.2,6.4-9.2,5.3c-4-1.1-6.4-5.2-5.3-9.2l40-149.2
		C556.7,376.6,560.8,374.2,564.9,375.3z"/>
</g>
<g>
	<path class="st0" d="M717.5,582.8c2.8-3.1,7.6-3.3,10.7-0.6l17.5,15.7c7.4,6.7,13.6,12.2,17.8,17.2c4.4,5.3,7.6,10.9,7.6,17.9
		c0,7-3.2,12.7-7.6,17.9c-4.2,5-10.4,10.5-17.8,17.2L728.1,684c-3.1,2.8-7.9,2.5-10.7-0.6c-2.8-3.1-2.5-7.9,0.6-10.7l17.1-15.4
		c7.9-7.1,13.3-12,16.7-16.1c3.3-4,4-6.3,4-8.2c0-2-0.7-4.3-4-8.2c-3.5-4.1-8.8-9-16.7-16.1L718,593.4
		C714.9,590.6,714.7,585.8,717.5,582.8z"/>
	<path class="st0" d="M627.5,593.4c3.1-2.8,3.3-7.6,0.6-10.7c-2.8-3.1-7.6-3.3-10.7-0.6l-17.5,15.7c-7.4,6.7-13.6,12.2-17.8,17.2
		c-4.4,5.3-7.6,10.9-7.6,17.9c0,7,3.2,12.7,7.6,17.9c4.2,5,10.4,10.5,17.8,17.2l17.5,15.7c3.1,2.8,7.9,2.5,10.7-0.6
		c2.8-3.1,2.5-7.9-0.6-10.7l-17.1-15.4c-7.9-7.1-13.3-12-16.7-16.1c-3.3-4-4-6.3-4-8.2c0-2,0.7-4.3,4-8.2c3.5-4.1,8.8-9,16.7-16.1
		L627.5,593.4z"/>
	<path class="st1" d="M694.7,552c4,1.1,6.4,5.2,5.3,9.2l-40,149.2c-1.1,4-5.2,6.4-9.2,5.3c-4-1.1-6.4-5.2-5.3-9.2l40-149.2
		C686.5,553.3,690.7,551,694.7,552z"/>
</g>
<g>
	<path class="st0" d="M722.6,225.6c2.8-3.1,7.6-3.3,10.7-0.6l17.5,15.7c7.4,6.7,13.6,12.2,17.8,17.2c4.4,5.3,7.6,10.9,7.6,17.9
		s-3.2,12.7-7.6,17.9c-4.2,5-10.4,10.5-17.8,17.2l-17.5,15.7c-3.1,2.8-7.9,2.5-10.7-0.6c-2.8-3.1-2.5-7.9,0.6-10.7l17.1-15.4
		c7.9-7.1,13.3-12,16.7-16.1c3.3-4,4-6.3,4-8.2c0-2-0.7-4.3-4-8.2c-3.5-4.1-8.8-9-16.7-16.1l-17.1-15.4
		C720.1,233.5,719.8,228.7,722.6,225.6z"/>
	<path class="st0" d="M632.7,236.3c3.1-2.8,3.3-7.6,0.6-10.7c-2.8-3.1-7.6-3.3-10.7-0.6l-17.5,15.7c-7.4,6.7-13.6,12.2-17.8,17.2
		c-4.4,5.3-7.6,10.9-7.6,17.9s3.2,12.7,7.6,17.9c4.2,5,10.4,10.5,17.8,17.2l17.5,15.7c3.1,2.8,7.9,2.5,10.7-0.6
		c2.8-3.1,2.5-7.9-0.6-10.7l-17.1-15.4c-7.9-7.1-13.3-12-16.7-16.1c-3.3-4-4-6.3-4-8.2c0-2,0.7-4.3,4-8.2c3.5-4.1,8.8-9,16.7-16.1
		L632.7,236.3z"/>
	<path class="st1" d="M699.9,194.9c4,1.1,6.4,5.2,5.3,9.2l-40,149.2c-1.1,4-5.2,6.4-9.2,5.3c-4-1.1-6.4-5.2-5.3-9.2l40-149.2
		C691.7,196.2,695.9,193.8,699.9,194.9z"/>
</g>
<g>
	<path class="st0" d="M603.7,40c2.8-3.1,7.6-3.3,10.7-0.6l17.5,15.7c7.4,6.7,13.6,12.2,17.8,17.2c4.4,5.3,7.6,10.9,7.6,17.9
		s-3.2,12.7-7.6,17.9c-4.2,5-10.4,10.5-17.8,17.2l-17.5,15.7c-3.1,2.8-7.9,2.5-10.7-0.6c-2.8-3.1-2.5-7.9,0.6-10.7l17.1-15.4
		c7.9-7.1,13.3-12,16.7-16.1c3.3-4,4-6.3,4-8.2c0-2-0.7-4.3-4-8.2c-3.5-4.1-8.8-9-16.7-16.1l-17.1-15.4
		C601.2,47.9,600.9,43.1,603.7,40z"/>
	<path class="st0" d="M513.7,50.6c3.1-2.8,3.3-7.6,0.6-10.7c-2.8-3.1-7.6-3.3-10.7-0.6l-17.5,15.7c-7.4,6.7-13.6,12.2-17.8,17.2
		c-4.4,5.3-7.6,10.9-7.6,17.9s3.2,12.7,7.6,17.9c4.2,5,10.4,10.5,17.8,17.2l17.5,15.7c3.1,2.8,7.9,2.5,10.7-0.6
		c2.8-3.1,2.5-7.9-0.6-10.7l-17.1-15.4c-7.9-7.1-13.3-12-16.7-16.1c-3.3-4-4-6.3-4-8.2c0-2,0.7-4.3,4-8.2c3.5-4.1,8.8-9,16.7-16.1
		L513.7,50.6z"/>
	<path class="st1" d="M580.9,9.3c4,1.1,6.4,5.2,5.3,9.2l-40,149.2c-1.1,4-5.2,6.4-9.2,5.3c-4-1.1-6.4-5.2-5.3-9.2l40-149.2
		C572.8,10.6,576.9,8.2,580.9,9.3z"/>
</g>
<g>
	<path class="st0" d="M441.4,224.8c2.8-3.1,7.6-3.3,10.7-0.6l17.5,15.7c7.4,6.7,13.6,12.2,17.8,17.2c4.4,5.3,7.6,10.9,7.6,17.9
		c0,7-3.2,12.7-7.6,17.9c-4.2,5-10.4,10.5-17.8,17.2L452,326c-3.1,2.8-7.9,2.5-10.7-0.6s-2.5-7.9,0.6-10.7l17.1-15.4
		c7.9-7.1,13.3-12,16.7-16.1c3.3-4,4-6.3,4-8.2c0-2-0.7-4.3-4-8.2c-3.5-4.1-8.8-9-16.7-16.1l-17.1-15.4
		C438.8,232.6,438.6,227.9,441.4,224.8z"/>
	<path class="st0" d="M351.4,235.4c3.1-2.8,3.3-7.6,0.6-10.7c-2.8-3.1-7.6-3.3-10.7-0.6L323.8,240c-7.4,6.7-13.6,12.2-17.8,17.2
		c-4.4,5.3-7.6,10.9-7.6,17.9c0,7,3.2,12.7,7.6,17.9c4.2,5,10.4,10.5,17.8,17.2l17.5,15.7c3.1,2.8,7.9,2.5,10.7-0.6
		c2.8-3.1,2.5-7.9-0.6-10.7l-17.1-15.4c-7.9-7.1-13.3-12-16.7-16.1c-3.3-4-4-6.3-4-8.2c0-2,0.7-4.3,4-8.2c3.5-4.1,8.8-9,16.7-16.1
		L351.4,235.4z"/>
	<path class="st1" d="M418.6,194.1c4,1.1,6.4,5.2,5.3,9.2l-40,149.2c-1.1,4-5.2,6.4-9.2,5.3c-4-1.1-6.4-5.2-5.3-9.2l40-149.2
		C410.5,195.4,414.6,193,418.6,194.1z"/>
</g>
<g>
	<path class="st0" d="M300.8,406c2.8-3.1,7.6-3.3,10.7-0.6l17.5,15.7c7.4,6.7,13.6,12.2,17.8,17.2c4.4,5.3,7.6,10.9,7.6,17.9
		s-3.2,12.7-7.6,17.9c-4.2,5-10.4,10.5-17.8,17.2l-17.5,15.7c-3.1,2.8-7.9,2.5-10.7-0.6c-2.8-3.1-2.5-7.9,0.6-10.7l17.1-15.4
		c7.9-7.1,13.3-12,16.7-16.1c3.3-4,4-6.3,4-8.2s-0.7-4.3-4-8.2c-3.5-4.1-8.8-9-16.7-16.1l-17.1-15.4
		C298.3,413.9,298,409.1,300.8,406z"/>
	<path class="st0" d="M210.9,416.7c3.1-2.8,3.3-7.6,0.6-10.7c-2.8-3.1-7.6-3.3-10.7-0.6l-17.5,15.7c-7.4,6.7-13.6,12.2-17.8,17.2
		c-4.4,5.3-7.6,10.9-7.6,17.9s3.2,12.7,7.6,17.9c4.2,5,10.4,10.5,17.8,17.2l17.5,15.7c3.1,2.8,7.9,2.5,10.7-0.6
		c2.8-3.1,2.5-7.9-0.6-10.7l-17.1-15.4c-7.9-7.1-13.3-12-16.7-16.1c-3.3-4-4-6.3-4-8.2s0.7-4.3,4-8.2c3.5-4.1,8.8-9,16.7-16.1
		L210.9,416.7z"/>
	<path class="st1" d="M278.1,375.3c4,1.1,6.4,5.2,5.3,9.2l-40,149.2c-1.1,4-5.2,6.4-9.2,5.3c-4-1.1-6.4-5.2-5.3-9.2l40-149.2
		C269.9,376.6,274,374.2,278.1,375.3z"/>
</g>
<g>
	<path class="st0" d="M152.5,584.5c2.8-3.1,7.6-3.3,10.7-0.6l17.5,15.7c7.4,6.7,13.6,12.2,17.8,17.2c4.4,5.3,7.6,10.9,7.6,17.9
		s-3.2,12.7-7.6,17.9c-4.2,5-10.4,10.5-17.8,17.2l-17.5,15.7c-3.1,2.8-7.9,2.5-10.7-0.6s-2.5-7.9,0.6-10.7l17.1-15.4
		c7.9-7.1,13.3-12,16.7-16.1c3.3-4,4-6.3,4-8.2c0-2-0.7-4.3-4-8.2c-3.5-4.1-8.8-9-16.7-16.1l-17.1-15.4
		C150,592.3,149.7,587.6,152.5,584.5z"/>
	<path class="st0" d="M62.5,595.1c3.1-2.8,3.3-7.6,0.6-10.7c-2.8-3.1-7.6-3.3-10.7-0.6L35,599.6c-7.4,6.7-13.6,12.2-17.8,17.2
		c-4.4,5.3-7.6,10.9-7.6,17.9s3.2,12.7,7.6,17.9c4.2,5,10.4,10.5,17.8,17.2l17.5,15.7c3.1,2.8,7.9,2.5,10.7-0.6
		c2.8-3.1,2.5-7.9-0.6-10.7l-17.1-15.4c-7.9-7.1-13.3-12-16.7-16.1c-3.3-4-4-6.3-4-8.2c0-2,0.7-4.3,4-8.2c3.5-4.1,8.8-9,16.7-16.1
		L62.5,595.1z"/>
	<path class="st1" d="M129.8,553.7c4,1.1,6.4,5.2,5.3,9.2l-40,149.2c-1.1,4-5.2,6.4-9.2,5.3c-4-1.1-6.4-5.2-5.3-9.2l40-149.2
		C121.6,555.1,125.7,552.7,129.8,553.7z"/>
</g>
<g>
	<path class="st0" d="M435,583.6c2.8-3.1,7.6-3.3,10.7-0.6l17.5,15.7c7.4,6.7,13.6,12.2,17.8,17.2c4.4,5.3,7.6,10.9,7.6,17.9
		s-3.2,12.7-7.6,17.9c-4.2,5-10.4,10.5-17.8,17.2l-17.5,15.7c-3.1,2.8-7.9,2.5-10.7-0.6c-2.8-3.1-2.5-7.9,0.6-10.7l17.1-15.4
		c7.9-7.1,13.3-12,16.7-16.1c3.3-4,4-6.3,4-8.2c0-2-0.7-4.3-4-8.2c-3.5-4.1-8.8-9-16.7-16.1l-17.1-15.4
		C432.4,591.5,432.2,586.7,435,583.6z"/>
	<path class="st0" d="M345,594.3c3.1-2.8,3.3-7.6,0.6-10.7c-2.8-3.1-7.6-3.3-10.7-0.6l-17.5,15.7c-7.4,6.7-13.6,12.2-17.8,17.2
		c-4.4,5.3-7.6,10.9-7.6,17.9s3.2,12.7,7.6,17.9c4.2,5,10.4,10.5,17.8,17.2l17.5,15.7c3.1,2.8,7.9,2.5,10.7-0.6
		c2.8-3.1,2.5-7.9-0.6-10.7l-17.1-15.4c-7.9-7.1-13.3-12-16.7-16.1c-3.3-4-4-6.3-4-8.2c0-2,0.7-4.3,4-8.2c3.5-4.1,8.8-9,16.7-16.1
		L345,594.3z"/>
	<path class="st1" d="M412.2,552.9c4,1.1,6.4,5.2,5.3,9.2l-40,149.2c-1.1,4-5.2,6.4-9.2,5.3c-4-1.1-6.4-5.2-5.3-9.2l40-149.2
		C404.1,554.2,408.2,551.8,412.2,552.9z"/>
</g>
</svg>
