<?xml version="1.0" encoding="utf-8"?>
<!-- Generator: Adobe Illustrator 27.6.1, SVG Export Plug-In . SVG Version: 6.00 Build 0)  -->
<svg version="1.1" id="Layer_1" xmlns="http://www.w3.org/2000/svg" xmlns:xlink="http://www.w3.org/1999/xlink" x="0px" y="0px"
	 viewBox="0 0 500 500" style="enable-background:new 0 0 500 500;" xml:space="preserve">
<style type="text/css">
	.st0{clip-path:url(#SVGID_00000160903406885186922280000011507575042297374105_);}
	.st1{fill-rule:evenodd;clip-rule:evenodd;fill:#CDF140;}
	.st2{clip-path:url(#SVGID_00000021084553489686963660000008175789347736683176_);}
	.st3{clip-path:url(#SVGID_00000005227743763995421280000001232507942430272146_);}
</style>
<g>
	<defs>
		<rect id="SVGID_1_" x="89.9" y="93.3" width="174.1" height="162.7"/>
	</defs>
	<clipPath id="SVGID_00000022559166035329044770000014418992154141827513_">
		<use xlink:href="#SVGID_1_"  style="overflow:visible;"/>
	</clipPath>
	<g style="clip-path:url(#SVGID_00000022559166035329044770000014418992154141827513_);">
		<path class="st1" d="M134.5,213.6c12.4-38.7,44.3-68.6,84.1-78.1l44.5-41.4c-5.6-0.6-11.3-0.9-17-0.9
			c-86.3,0-156.2,69.9-156.2,156.2c0,1.9,0,3.7,0.1,5.5l15.9-14.7L134.5,213.6z"/>
	</g>
</g>
<g>
	<defs>
		<rect id="SVGID_00000054988705210349572960000004431120850327057825_" x="101.3" y="93.3" width="289.3" height="313"/>
	</defs>
	<clipPath id="SVGID_00000174583071693573725630000006622633359711700388_">
		<use xlink:href="#SVGID_00000054988705210349572960000004431120850327057825_"  style="overflow:visible;"/>
	</clipPath>
	<g style="clip-path:url(#SVGID_00000174583071693573725630000006622633359711700388_);">
		<path class="st1" d="M174.9,294.2l145.7-135.3l28.8-26.7l40.8-37.9h-74.8l-10.9,10.2L271.5,135L130.1,266.3L101.4,293l113.9,113.8
			h72.2l-40.3-40.3L174.9,294.2z"/>
	</g>
</g>
<g>
	<defs>
		<rect id="SVGID_00000068672000416946856740000010729510639268558271_" x="225.3" y="260" width="184.5" height="146.3"/>
	</defs>
	<clipPath id="SVGID_00000147200793142714835600000006117553887261441437_">
		<use xlink:href="#SVGID_00000068672000416946856740000010729510639268558271_"  style="overflow:visible;"/>
	</clipPath>
	<g style="clip-path:url(#SVGID_00000147200793142714835600000006117553887261441437_);">
		<path class="st1" d="M263.7,260.4l-37.4,34.8l16.4,16.5l95.2,95.2h72.2l-50.3-50.3l-27.6-27.6L263.7,260.4z"/>
	</g>
</g>
<path class="st1" d="M344.3,185.5c12,18.4,18.9,40.3,18.9,63.9c0,18-4,35-11.3,50.2l28.9,28.9c13.6-23.2,21.4-50.2,21.4-79
	c0-33.8-10.8-65.2-29-90.7L344.3,185.5z"/>
</svg>
